<?xml version="1.0" standalone="no"?>
<!DOCTYPE svg PUBLIC "-//W3C//DTD SVG 20010904//EN"
 "http://www.w3.org/TR/2001/REC-SVG-20010904/DTD/svg10.dtd">
<svg version="1.0" xmlns="http://www.w3.org/2000/svg"
 width="886.000000pt" height="886.000000pt" viewBox="0 0 886.000000 886.000000"
 preserveAspectRatio="xMidYMid meet">
<metadata>
Created by potrace 1.14, written by Peter Selinger 2001-2017
</metadata>
<g transform="translate(0.000000,886.000000) scale(0.100000,-0.100000)"
fill="#000000" stroke="none">
<path d="M2548 8490 c11 -25 48 -108 82 -185 452 -1015 930 -2166 1103 -2660
133 -378 143 -447 88 -605 -38 -109 -162 -402 -254 -600 l-63 -135 -83 -3
c-49 -2 -80 1 -77 7 13 20 -571 215 -873 290 -390 98 -646 116 -768 55 -47
-24 -64 -39 -91 -84 -157 -264 -556 -1622 -1111 -3786 -61 -237 -111 -435
-111 -440 0 -5 82 149 181 341 876 1699 1476 2805 1656 3057 20 27 61 64 97
86 64 41 306 166 310 160 12 -18 -95 -2053 -124 -2364 -11 -116 -20 -223 -20
-237 l0 -27 425 0 425 0 0 58 c0 226 50 1656 63 1792 1 19 17 -4 66 -95 134
-251 347 -625 591 -1039 139 -237 287 -494 329 -573 l76 -142 546 -1 546 0 6
272 c8 351 90 1888 122 2299 14 173 25 327 25 342 l0 27 -422 -2 -423 -3 -6
-320 c-10 -479 -54 -1573 -64 -1584 -2 -2 -28 46 -58 105 -31 60 -224 415
-431 789 l-376 680 27 24 c16 13 138 128 273 256 417 395 710 705 757 802 14
26 14 41 5 88 -51 254 -498 928 -1301 1960 -272 350 -1074 1344 -1153 1430 -5
6 -1 -10 10 -35z"/>
<path d="M5957 3998 c-3 -167 -8 -311 -13 -322 -7 -17 -3 -18 62 -12 115 10
1294 19 1294 10 0 -5 -60 -77 -133 -160 -163 -186 -1083 -1180 -1263 -1364
l-131 -135 -7 -190 c-3 -104 -9 -252 -12 -327 l-7 -138 1290 0 1290 0 12 268
c6 147 14 296 18 331 l6 64 -84 -7 c-46 -3 -370 -9 -719 -12 l-635 -7 21 24
c127 145 1280 1397 1380 1499 l133 135 11 275 c5 151 13 296 16 323 l6 47
-1265 0 -1264 0 -6 -302z"/>
</g>
</svg>
